<svg width="1920" height="859" viewBox="0 0 1920 859" fill="none" xmlns="http://www.w3.org/2000/svg">
<g clip-path="url(#clip0_285_1902)">
<rect width="1920" height="859" fill="#F0F2F5"/>
<g opacity="0.8">
<path opacity="0.25" d="M95.5208 805.604C112.366 803.537 124.346 788.217 122.279 771.388C120.212 754.558 104.88 742.591 88.0355 744.659C71.1906 746.727 59.2108 762.046 61.2778 778.876C63.3447 795.705 78.6759 807.672 95.5208 805.604Z" fill="#CFDAE6"/>
<path opacity="0.6" d="M8.8423 766.288C12.8769 765.792 15.7463 762.123 15.2512 758.092C14.7561 754.061 11.0841 751.195 7.04947 751.69C3.01485 752.185 0.145479 755.855 0.640555 759.886C1.13563 763.917 4.80768 766.783 8.8423 766.288Z" fill="#CFDAE6"/>
<path opacity="0.45" fill-rule="evenodd" clip-rule="evenodd" d="M65.7666 857.742C73.8359 856.751 79.5746 849.413 78.5845 841.351C77.5943 833.289 70.2502 827.556 62.181 828.547C54.1117 829.537 48.373 836.876 49.3631 844.938C50.3533 853 57.6974 858.732 65.7666 857.742Z" fill="#CFDAE6"/>
<path opacity="0.8" d="M92.8826 775.994L166.91 743.308" stroke="#CFDAE6" stroke-width="1.73913" stroke-linecap="round" stroke-linejoin="round"/>
<path opacity="0.7" d="M60.7437 770.461L10.4805 759.667" stroke="#E0B4B7" stroke-width="0.702679" stroke-linecap="round" stroke-linejoin="round" stroke-dasharray="1.41 2.11"/>
<path opacity="0.8" d="M92.4511 776.546L70.2481 830.152" stroke="#BACAD9" stroke-width="0.702679" stroke-linecap="round" stroke-linejoin="round" stroke-dasharray="1.41 2.11"/>
<g opacity="0.8">
<path opacity="0.45" d="M171.553 749.33C178.104 752.11 185.668 749.058 188.447 742.513C191.225 735.967 188.167 728.407 181.616 725.627C175.065 722.847 167.501 725.899 164.722 732.444C161.944 738.99 165.002 746.549 171.553 749.33Z" fill="#CFDAE6"/>
<path opacity="0.8" fill-rule="evenodd" clip-rule="evenodd" d="M164.723 732.444C161.944 738.99 165.003 746.55 171.554 749.33C178.105 752.11 185.669 749.058 188.448 742.513L164.723 732.444Z" fill="#CFDAE6"/>
</g>
</g>
<path opacity="0.25" d="M184.927 129.303C207.526 127.326 224.243 107.391 222.264 84.7769C220.285 62.1626 200.36 45.4326 177.76 47.4092C155.16 49.3859 138.444 69.3207 140.423 91.935C142.402 114.549 162.327 131.279 184.927 129.303Z" fill="#CFDAE6"/>
<path opacity="0.3" d="M183.997 118.687C200.737 117.223 213.12 102.456 211.654 85.7048C210.188 68.9536 195.429 56.5609 178.688 58.0251C161.948 59.4893 149.565 74.2559 151.031 91.0071C152.497 107.758 167.256 120.151 183.997 118.687Z" fill="#CFDAE6"/>
<path opacity="0.4" d="M408.332 256.461C426.747 254.85 440.368 238.607 438.755 220.18C437.143 201.754 420.907 188.122 402.493 189.733C384.078 191.343 370.458 207.586 372.07 226.013C373.683 244.439 389.918 258.071 408.332 256.461Z" stroke="#CFDAE6"/>
<path opacity="0.5" d="M182.671 103.521C191.042 102.789 197.233 95.406 196.5 87.0304C195.767 78.6548 188.387 72.4584 180.017 73.1905C171.647 73.9226 165.456 81.3059 166.189 89.6815C166.921 98.0572 174.301 104.254 182.671 103.521Z" fill="#BACAD9"/>
<path fill-rule="evenodd" clip-rule="evenodd" d="M182.671 103.521L180.017 73.1905C171.647 73.9226 165.456 81.3059 166.188 89.6815C166.921 98.057 174.301 104.253 182.671 103.521Z" fill="#BACAD9"/>
<g opacity="0.45">
<path opacity="0.45" d="M406.209 232.196C411.231 231.757 414.945 227.327 414.505 222.302C414.066 217.276 409.638 213.559 404.616 213.998C399.594 214.437 395.879 218.867 396.319 223.892C396.759 228.918 401.186 232.636 406.209 232.196Z" fill="#E6A1A6"/>
<path opacity="0.45" fill-rule="evenodd" clip-rule="evenodd" d="M406.208 232.197C401.186 232.636 396.758 228.918 396.318 223.893C395.879 218.867 399.593 214.437 404.615 213.998L406.208 232.197Z" fill="#E6A1A6"/>
</g>
<path d="M460.997 221.291C462.252 221.181 463.181 220.073 463.071 218.817C462.961 217.561 461.854 216.631 460.599 216.741C459.343 216.851 458.414 217.958 458.524 219.215C458.634 220.471 459.741 221.401 460.997 221.291Z" fill="#CFDAE6"/>
<path opacity="0.35" d="M410.947 277.626C412.202 277.516 413.131 276.408 413.021 275.152C412.911 273.896 411.804 272.966 410.549 273.076C409.293 273.186 408.365 274.293 408.474 275.55C408.584 276.806 409.691 277.736 410.947 277.626Z" fill="#E0B4B7"/>
<path opacity="0.35" d="M402.814 175.952C404.488 175.806 405.726 174.329 405.58 172.654C405.433 170.979 403.957 169.739 402.283 169.886C400.609 170.032 399.371 171.509 399.517 173.184C399.664 174.859 401.14 176.098 402.814 175.952Z" fill="#E0B4B7"/>
<path opacity="0.8" d="M181.277 89.5303L393.706 216.661" stroke="#CFDAE6"/>
<g opacity="0.8">
<path opacity="0.8" d="M1509.86 50.2615C1518.41 48.599 1523.99 40.2498 1522.31 31.6131C1520.63 22.9764 1512.33 17.3227 1503.78 18.9853C1495.22 20.6478 1489.65 28.997 1491.33 37.6337C1493.01 46.2704 1501.3 51.9241 1509.86 50.2615Z" stroke="#CFDAE6" stroke-width="0.941176"/>
<g opacity="0.8">
<path opacity="0.45" d="M1509.08 46.479C1515.56 45.2196 1519.78 38.8944 1518.51 32.3514C1517.24 25.8084 1510.95 21.5251 1504.47 22.7846C1497.99 24.044 1493.77 30.3691 1495.04 36.9122C1496.31 43.4552 1502.6 47.7384 1509.08 46.479Z" fill="#BACAD9"/>
<path opacity="0.8" fill-rule="evenodd" clip-rule="evenodd" d="M1509.08 46.4787C1515.56 45.2193 1519.78 38.8943 1518.51 32.3514C1517.24 25.8084 1510.95 21.5253 1504.47 22.7847L1509.08 46.4787Z" fill="#BACAD9"/>
</g>
<path opacity="0.8" d="M1492.21 27.132L1446.73 7.17139" stroke="#CFDAE6" stroke-width="0.941176"/>
<path opacity="0.8" d="M1443.82 10.3521C1446.32 9.86723 1447.94 7.43204 1447.45 4.91301C1446.96 2.39397 1444.54 0.744984 1442.05 1.2299C1439.55 1.71481 1437.93 4.14999 1438.42 6.66903C1438.91 9.18807 1441.33 10.8371 1443.82 10.3521Z" stroke="#CFDAE6" stroke-width="0.941176"/>
<path opacity="0.8" d="M1458.63 89.9693C1460.77 89.5537 1462.16 87.4664 1461.74 85.3072C1461.32 83.148 1459.25 81.7346 1457.11 82.1502C1454.97 82.5659 1453.58 84.6532 1454 86.8124C1454.42 88.9715 1456.49 90.385 1458.63 89.9693Z" fill="#F7E1AD"/>
<path opacity="0.8" d="M1496.06 47.1916L1460.64 83.5236" stroke="#CFDAE6" stroke-width="0.941176"/>
</g>
<g opacity="0.33">
<g opacity="0.33">
<path opacity="0.45" d="M1820.76 595.713C1819.97 586.659 1811.98 579.961 1802.93 580.753C1793.87 581.544 1787.17 589.526 1787.97 598.58C1788.76 607.634 1796.74 614.332 1805.8 613.54C1814.85 612.748 1821.55 604.767 1820.76 595.713Z" fill="#BACAD9"/>
<path opacity="0.33" fill-rule="evenodd" clip-rule="evenodd" d="M1805.8 613.54C1814.85 612.748 1821.55 604.766 1820.76 595.712C1819.97 586.659 1811.98 579.961 1802.93 580.753L1805.8 613.54Z" fill="#BACAD9"/>
</g>
<path opacity="0.33" d="M1886.11 566.304C1890.58 565.515 1893.57 561.247 1892.78 556.772C1891.99 552.297 1887.72 549.308 1883.25 550.097C1878.77 550.886 1875.78 555.154 1876.57 559.629C1877.36 564.104 1881.63 567.093 1886.11 566.304Z" fill="#CFDAE6"/>
<path opacity="0.33" d="M1803.96 574.312L1802.59 472.563" stroke="#BACAD9" stroke-width="1.16667"/>
<path opacity="0.33" d="M1616.29 533.661L1783.84 590.51" stroke="#BACAD9" stroke-width="1.16667"/>
<path opacity="0.33" d="M1812.23 617.954L1882.6 764.919L1672.46 681.563L1785.55 609.095" stroke="#CFDAE6" stroke-width="1.16667"/>
<path opacity="0.6" d="M1829.33 585.497L1876.19 562.203" stroke="#E0B4B7" stroke-width="1.16667"/>
<path opacity="0.33" d="M1888.23 549.894L1923.35 477.86" stroke="#BACAD9" stroke-width="1.16667"/>
<path opacity="0.33" d="M1985.79 604.445L1892.68 560.964" stroke="#CFDAE6" stroke-width="1.16667"/>
<path opacity="0.33" d="M1805.13 471.966C1811.84 470.783 1816.32 464.382 1815.14 457.669C1813.95 450.956 1807.55 446.473 1800.84 447.657C1794.13 448.84 1789.64 455.242 1790.83 461.955C1792.01 468.667 1798.41 473.15 1805.13 471.966Z" fill="#C1D1E0"/>
<path opacity="0.33" d="M1674.86 690.437C1678.89 689.727 1681.58 685.886 1680.87 681.859C1680.16 677.831 1676.31 675.141 1672.29 675.851C1668.26 676.562 1665.57 680.402 1666.28 684.43C1666.99 688.458 1670.83 691.147 1674.86 690.437Z" fill="#C1D1E0"/>
<path opacity="0.33" d="M1605.28 542.29C1611.99 541.107 1616.48 534.705 1615.29 527.992C1614.11 521.28 1607.71 516.797 1600.99 517.981C1594.28 519.164 1589.8 525.565 1590.98 532.278C1592.17 538.991 1598.57 543.474 1605.28 542.29Z" fill="#D1DEED" fill-opacity="0.6"/>
<path opacity="0.33" d="M1930.45 476.607C1934.93 475.818 1937.92 471.551 1937.13 467.076C1936.34 462.6 1932.07 459.612 1927.59 460.401C1923.12 461.19 1920.13 465.457 1920.92 469.933C1921.71 474.408 1925.98 477.396 1930.45 476.607Z" fill="#D1DEED" fill-opacity="0.6"/>
<path opacity="0.33" d="M1885.08 773.687C1889.1 772.977 1891.79 769.136 1891.08 765.108C1890.37 761.08 1886.53 758.391 1882.5 759.101C1878.48 759.811 1875.79 763.652 1876.5 767.68C1877.21 771.707 1881.05 774.397 1885.08 773.687Z" fill="#E0B4B7"/>
</g>
</g>
<defs>
<clipPath id="clip0_285_1902">
<rect width="1920" height="859" fill="white"/>
</clipPath>
</defs>
</svg>
